<?xml version="1.0" ?><!DOCTYPE svg  PUBLIC '-//W3C//DTD SVG 1.1//EN'  'http://www.w3.org/Graphics/SVG/1.1/DTD/svg11.dtd'><svg enable-background="new 0 0 128 128" height="128px" id="Layer_1" version="1.1" viewBox="0 0 128 128" width="128px" xml:space="preserve" xmlns="http://www.w3.org/2000/svg" xmlns:xlink="http://www.w3.org/1999/xlink"><path d="M89.843,64.815c-1.104,0-2-0.896-2-2V33.57c0-5.626-4.577-10.203-10.202-10.203H50.393c-5.624,0-10.2,4.577-10.2,10.203  v29.245c0,1.104-0.896,2-2,2s-2-0.896-2-2V33.57c0-7.832,6.37-14.203,14.2-14.203h27.248c7.831,0,14.202,6.371,14.202,14.203v29.245  C91.843,63.919,90.947,64.815,89.843,64.815z"/><path d="M91.843,101.148h-55.65V73.016h55.65V101.148z M40.192,97.148h47.65V77.016h-47.65V97.148z"/><path d="M40.192,101.148H25.088V68.137c-6.279-0.967-11.104-6.406-11.104-12.951c0-7.226,5.878-13.104,13.104-13.104  s13.104,5.879,13.104,13.104V101.148z M29.088,97.148h7.104V55.186c0-5.021-4.084-9.104-9.104-9.104  c-5.02,0-9.104,4.084-9.104,9.104c0,5.02,4.084,9.103,9.104,9.103h2V97.148z"/><path d="M102.944,101.148H87.843V55.186c0-7.226,5.877-13.104,13.102-13.104s13.103,5.879,13.103,13.104  c0,6.545-4.824,11.984-11.103,12.951V101.148z M91.843,97.148h7.102v-32.86h2c5.02,0,9.103-4.083,9.103-9.103  c0-5.021-4.083-9.104-9.103-9.104c-5.019,0-9.102,4.084-9.102,9.104V97.148z"/><path d="M38.192,107.238c-1.104,0-2-0.896-2-2v-4.404c0-1.104,0.896-2,2-2s2,0.896,2,2v4.404  C40.192,106.342,39.297,107.238,38.192,107.238z"/><path d="M89.843,107.238c-1.104,0-2-0.896-2-2v-4.404c0-1.104,0.896-2,2-2s2,0.896,2,2v4.404  C91.843,106.342,90.947,107.238,89.843,107.238z"/></svg>